<?xml version="1.0" encoding="UTF-8" standalone="no"?>
<svg
   xmlns:dc="http://purl.org/dc/elements/1.1/"
   xmlns:cc="http://creativecommons.org/ns#"
   xmlns:rdf="http://www.w3.org/1999/02/22-rdf-syntax-ns#"
   xmlns:svg="http://www.w3.org/2000/svg"
   xmlns="http://www.w3.org/2000/svg"
   xmlns:sodipodi="http://sodipodi.sourceforge.net/DTD/sodipodi-0.dtd"
   xmlns:inkscape="http://www.inkscape.org/namespaces/inkscape"
   version="1.1"
   id="svg2"
   xml:space="preserve"
   width="258.66666"
   height="258.66666"
   viewBox="0 0 258.66666 258.66666"
   sodipodi:docname="For_Dummies.eps"><metadata
     id="metadata8"><rdf:RDF><cc:Work
         rdf:about=""><dc:format>image/svg+xml</dc:format><dc:type
           rdf:resource="http://purl.org/dc/dcmitype/StillImage" /></cc:Work></rdf:RDF></metadata><defs
     id="defs6" /><sodipodi:namedview
     pagecolor="#ffffff"
     bordercolor="#666666"
     borderopacity="1"
     objecttolerance="10"
     gridtolerance="10"
     guidetolerance="10"
     inkscape:pageopacity="0"
     inkscape:pageshadow="2"
     inkscape:window-width="640"
     inkscape:window-height="480"
     id="namedview4" /><g
     id="g10"
     inkscape:groupmode="layer"
     inkscape:label="ink_ext_XXXXXX"
     transform="matrix(1.3333333,0,0,-1.3333333,0,258.66667)"><g
       id="g12"
       transform="scale(0.1)"><path
         d="M 2.59766,1933.23 H 1930.16 V 5.66797 H 2.59766 V 1933.23"
         style="fill:#ffffff;fill-opacity:1;fill-rule:evenodd;stroke:none"
         id="path14" /><path
         d="m 1590.09,1147.77 -2.91,-2.39 2.91,-16.97 v -19.09 l 4.25,-8.76 -3.19,-2.38 -7.69,3.97 -13.79,-0.79 -2.65,0.26 -2.12,3.18 -3.19,-2.38 -5.03,22.81 -16.45,-0.27 -3.18,-2.39 2.39,-3.18 -10.34,4.51 -15.12,-9.02 0.53,2.66 -2.38,3.18 -9.02,-4.24 -2.13,3.18 -11.66,-3.71 -0.27,-2.92 2.39,-3.18 -14.32,-3.19 -13,4.78 -5.3,0.79 -7.69,-12.73 3.18,-16.97 -6.63,-26.52 2.39,-3.19 2.65,-0.26 3.18,2.39 -0.53,-22.01 4.51,-6.1 33.94,6.1 22.02,2.12 3.18,2.39 -1.06,10.87 13.26,-4.51 2.39,-0.27 3.18,2.12 1.32,7.96 7.96,-1.06 4.24,-9.02 6.37,-31.02 -2.65,0.53 -2.92,-2.39 -0.53,-2.65 2.12,-3.19 5.57,-0.79 1.06,-11.139 -16.71,-0.266 -2.92,-2.387 -2.38,3.18 -8.49,-1.59 -13.52,18.562 -28.38,-3.98 -11.67,-6.625 -8.49,-1.594 -2.38,3.189 -2.66,0.53 -4.24,-10.613 -1.59,-10.609 2.12,-3.18 -2.38,0.531 -3.19,-2.387 -0.79,-5.304 2.38,-3.184 2.39,-0.531 3.18,2.387 5.04,-41.899 61,4.774 3.18,2.386 -0.53,-2.656 2.39,-3.184 2.65,-0.261 6.36,4.508 -2.38,3.183 15.91,-2.387 2.39,-3.183 15.11,8.754 13.79,0.793 2.66,-0.532 6.1,4.774 0.53,21.746 25.46,4.512 2.12,-2.918 4.51,-9.016 -6.9,-7.164 -0.26,-2.648 2.39,-3.184 5.3,-0.797 0.26,-35.801 2.92,-16.976 -3.98,-7.688 4.51,-8.754 -0.8,-5.304 -6.89,9.285 -2.92,0.265 3.18,2.387 -8.48,17.766 -7.69,3.715 1.06,5.57 -2.65,2.918 -2.39,0.262 -3.18,-2.121 1.59,-8.485 -7.96,20.418 -2.92,0.266 -2.91,-2.121 -2.39,2.918 -26.25,-9.817 -11.15,-1.058 -2.91,-2.121 2.12,-3.184 -8.75,-4.242 -16.71,-0.262 -4.51,6.094 -2.92,-2.117 -7.42,6.363 -11.4,-3.711 -3.19,-2.387 2.39,-3.183 5.3,-0.797 -1.59,2.386 2.92,2.125 1.86,-2.125 -9.29,-6.894 -24.92,-1.594 -13.26,4.512 -9.29,-6.899 -9.81,6.899 -8.75,-4.242 -1.33,-7.957 -17.23,-5.836 0.79,5.57 -2.39,2.918 3.19,2.387 -1.59,8.488 3.18,2.387 0.79,5.301 -2.38,3.179 17.23,5.571 3.18,2.125 -3.97,66.566 2.65,-0.266 6.1,4.508 -9.55,9.812 1.33,7.96 -4.78,6.1 1.33,27.32 -4.77,22.8 1.85,32.62 -2.38,3.18 -22.28,-2.39 -7.96,1.07 1.06,8.22 6.1,4.77 -0.53,13.53 6.1,4.51 44.29,1.85 92.3,11.14 13.52,-1.86 5.04,15.65 31.82,-7.16 z m -111.91,-9.28 -2.65,0.26 1.85,-5.57 -9.01,-4.5 2.38,-2.92 9.55,9.54 z m -15.38,-11.41 -2.92,0.27 2.39,-3.18 z m -22.01,0.27 -5.58,0.79 -0.53,-5.3 2.66,-2.65 z m 13.52,-1.86 -5.31,0.8 4.78,-3.72 z m -0.27,-38.45 -2.65,0.53 2.12,-3.18 z m 83.01,-53.31 -2.65,-4.24 -0.79,-5.31 4.24,4.78 z m -95.73,-1.33 -9.82,6.64 1.06,-11.14 z m 70.27,-10.34 -2.65,2.92 -2.92,-2.12 z m 36.6,-11.14 -7.16,6.9 2.39,-3.18 -3.19,-2.39 -2.91,0.27 -0.8,-5.31 10.61,-4.25 z m -24.13,3.72 -8.22,1.06 7.69,-3.72 z m -45.09,-7.16 -5.3,0.79 4.77,-3.45 z m -21.74,-73.73 -5.57,0.793 2.12,-5.832 3.18,2.387 z m -13.8,-0.535 -2.64,0.269 -5.84,-1.859 2.39,-3.184 7.95,-1.32 0.53,2.914 z m 49.86,-15.645 -10.87,1.594 -8.75,-4.246 4.24,-9.016 7.69,-3.714 2.92,2.121 0.8,5.57 -2.13,2.918 z m 43.23,-6.363 -5.57,0.797 -3.45,-5.043 5.31,-0.797 3.18,2.387 z m 64.71,-25.992 -2.12,2.918 -2.39,-1.59 4.78,-6.102 2.12,1.594 0.26,2.914 3.19,2.121 -1.86,2.387 -2.92,-2.387 1.59,-2.121 -2.65,0.266"
         style="fill:#100e0d;fill-opacity:1;fill-rule:evenodd;stroke:none"
         id="path16" /><path
         d="m 1776.8,1189.41 2.39,-3.18 3.18,2.38 20.15,-11.14 7.16,-6.63 10.88,-1.59 3.45,5.04 1.06,8.22 5.57,-1.06 -3.18,-2.12 2.38,-3.19 8.49,1.6 2.92,2.39 0.53,2.38 10.6,-1.59 1.59,-46.68 3.98,-9.01 -0.26,-2.66 -2.92,-2.12 2.12,-3.18 -1.32,-8.22 -19.89,-5.3 -9.29,12.46 0.8,5.3 -9.02,12.47 2.92,2.12 0.53,2.65 -12.73,7.43 -9.02,12.46 -5.3,0.8 0.27,2.65 -4.78,6.1 -7.95,1.33 -2.92,-2.39 -7.43,6.63 -2.65,0.27 -6.1,-4.78 -0.53,-2.39 -2.39,2.92 -14.05,-3.44 -2.39,3.18 -19.1,-5.31 -3.18,-2.39 -0.53,-2.91 -10.07,-9.28 5.03,-0.8 -0.26,-2.65 2.39,-3.18 -3.19,-2.12 3.71,-11.68 9.28,-12.46 14.06,-15.65 17.77,-10.87 29.44,-4.24 3.18,2.38 23.07,-11.66 22.28,-17.25 17.51,-29.7 4.5,-25.46 -2.12,-51.977 -2.91,-2.387 4.5,-6.098 -13.26,-33.949 -14.05,-19.625 -36.07,-22.277 -19.63,-2.653 -39.78,8.754 -7.42,6.363 -20.42,11.403 -7.17,6.367 -4.5,6.363 -2.92,0.27 -6.1,-4.778 -6.63,-26.253 -2.92,-2.387 -0.53,-2.653 4.51,-6.101 -3.18,-2.387 0.79,5.57 -7.16,6.368 -4.5,6.097 -5.31,0.793 -6.63,-7.16 v 19.098 l 3.98,7.691 0.53,5.305 3.18,2.387 -2.38,3.183 3.97,7.688 -0.26,16.445 6.36,4.508 -2.38,3.183 4.24,10.344 1.33,7.953 8.22,1.594 -0.27,-2.656 2.12,-2.914 2.92,-0.532 6.63,9.813 8.22,-1.063 2.66,-19.625 23.33,-28.109 7.69,-3.98 -0.53,-2.649 2.39,-2.918 3.18,2.121 28.38,-12.465 21.74,-0.265 9.02,3.976 9.02,6.895 11.67,23.074 7.96,15.383 5.3,18.562 -2.65,38.72 -6.9,25.73 -21.48,22.54 -8.22,1.06 -2.12,3.18 2.91,2.13 7.7,-3.72 2.91,2.13 0.8,5.56 -9.82,6.9 -14.58,-6.1 -12.73,7.43 -2.65,0.26 -6.1,-4.51 -4.51,6.1 -10.87,1.59 -6.1,-4.51 -25.46,14.85 -19.1,19.1 -7.69,23.07 0.53,21.75 -2.12,3.18 7.16,12.73 -1.33,8.49 14.86,8.49 1.32,-10.88 2.66,-0.53 2.91,2.12 0.8,5.57 -2.12,2.92 6.09,4.77 -2.65,0.53 0.27,2.39 2.91,-0.26 -0.53,-2.66 2.39,-3.18 6.1,4.51 -4.77,4.24 2.92,2.39 2.91,1.59 3.18,2.12 2.12,-2.91 16.98,3.18 18.3,-5.31 z m 36.6,-6.37 -5.31,0.8 4.78,-3.45 z m -73.99,-94.41 6.09,4.51 -1.59,2.38 -9.28,-6.89 1.59,-2.39 -4.51,6.37 -0.53,-2.65 9.28,-12.47 1.33,7.96 z m 34.74,-4.24 -13.26,1.85 -0.53,-2.65 12.73,-7.43 3.18,2.39 0.27,2.65 z m 66.3,-60.74 -2.65,0.27 1.85,-5.84 z m -2.65,-19.09 -2.92,0.53 2.12,-5.836 2.92,2.386 z m -162.04,-36.599 2.12,-5.039 2.39,8.484 -3.98,0.532 z m 28.9,-45.617 8.23,-1.063 -3.45,4.774 -4.24,0.531 z m -13.78,-0.531 -2.66,0.531 -3.45,-5.305 5.31,-0.793 z m 0.79,-14.055 -2.65,0.531 2.38,-2.918 z m 107.41,-15.645 -2.39,0.262 -6.37,-4.508 2.39,-3.183 8.75,4.511 z m -51.72,2.117 -2.65,0.532 2.39,-3.18 z m -79.82,0.532 -2.39,0.531 2.12,-2.918 z m 5.83,-28.641 -2.92,0.531 2.39,-3.183 z"
         style="fill:#100e0d;fill-opacity:1;fill-rule:evenodd;stroke:none"
         id="path18" /><path
         d="m 1380.58,1178.53 -10.87,-17.5 -9.28,-6.89 -17.24,-5.57 -2.92,-57.29 -3.98,-7.69 4.25,-8.75 -6.64,-26.79 2.39,-3.18 1.86,-24.93 -6.63,-81.417 2.65,-19.359 2.12,-3.184 41.64,2.122 7.96,-1.325 2.91,-0.269 -1.32,-7.957 -2.66,0.269 0.54,2.653 -4.78,6.097 -5.83,-4.507 -0.54,-2.653 2.13,-3.18 2.91,-0.269 -3.18,-2.117 -2.65,0.261 -4.78,6.102 -6.09,-4.508 2.38,-3.183 -2.65,0.261 -3.18,-2.117 -0.53,-2.656 2.38,-3.18 2.92,-0.265 2.92,2.386 4.78,-6.363 -2.39,3.18 -2.92,0.265 -2.92,-2.386 -0.79,-5.301 -22.01,0.527 -2.13,2.918 -14.05,-0.531 -5.31,0.531 -3.18,-2.121 -0.26,-2.652 -2.13,3.183 -16.97,-3.183 -2.92,0.261 3.19,2.391 0.52,2.918 -2.38,2.918 -5.3,0.793 -3.19,-2.121 -0.26,-2.918 2.12,-3.184 -2.92,-2.121 -5.3,0.797 -1.33,11.141 1.59,10.871 20.16,5.305 7.96,-1.329 2.91,2.387 0.8,5.305 -4.78,3.715 -8.22,1.058 v 19.098 l 3.19,2.387 0.26,57.546 8.22,150.11 -10.34,3.98 -8.22,1.32 -2.39,19.63 -2.39,3.18 -3.18,-2.38 -2.12,3.18 -2.65,0.26 9.55,9.55 2.38,-2.92 13.79,0.53 7.96,-1.32 2.39,-2.92 43.75,-0.8 18.84,-2.92 z m -24.4,-2.91 8.75,-0.27 0.8,4.24 -4.25,0.54 z m -20.68,-3.98 4.24,-0.8 1.06,8.75 -4.77,-3.97 z m -1.6,-29.97 -7.95,1.06 1.59,-5.83 z m 4.25,-9.02 -2.92,0.53 2.39,-3.18 z m -2.92,-18.83 -3.98,9.02 -3.18,-2.39 2.39,-2.91 -3.19,-2.39 -0.53,-2.92 8.22,-1.06 z m -16.44,-0.26 -2.92,0.26 2.39,-2.91 z m 16.71,-73.99 -2.66,0.53 2.12,-3.19 z m -16.45,-0.27 -2.91,0.27 -6.37,-7.17 2.39,-0.26 z m -0.79,-41.109 -2.39,3.189 -2.92,-2.392 2.13,-2.918 z m 0,-19.093 -2.65,0.265 2.38,-2.914 z m 6.89,-9.282 -2.65,0.532 2.39,-3.184 z m -11.67,-3.98 -2.12,3.184 -3.71,-7.688 5.3,-0.797 z m 10.08,-6.891 -2.39,3.18 -2.91,-2.387 2.12,-3.179 z m -5.3,-37.394 -2.92,0.262 2.12,-5.833 z"
         style="fill:#100e0d;fill-opacity:1;fill-rule:evenodd;stroke:none"
         id="path20" /><path
         d="m 1237.37,1151.48 2.12,-3.18 -1.06,-7.96 -10.61,1.59 -2.38,3.19 -20.16,-5.31 0.79,-33.15 8.76,-53.57 -0.8,-5.3 -2.65,0.53 -3.18,-2.39 -0.54,-2.91 2.39,-2.92 2.92,-0.27 2.65,2.12 0.53,-16.44 5.31,-19.89 1.32,-27.847 6.63,-31.031 1.59,-24.929 2.39,-3.18 -0.26,-2.918 -3.18,-2.121 3.97,-11.672 -0.26,-38.188 -3.19,-2.386 -0.79,-5.305 2.39,-3.184 5.3,-0.796 0.79,-13.79 2.39,-3.179 -3.18,-2.387 7.16,-6.367 32.88,-2.121 -9.28,-6.899 2.39,-3.183 -12.2,-6.364 -7.43,3.977 -4.77,6.102 -8.75,-4.243 -10.87,1.594 -3.19,-2.387 -0.26,-2.656 2.39,-2.914 -22.55,-5.043 -1.06,-5.566 -2.65,0.531 -3.18,-2.125 -0.8,-5.57 -7.95,1.066 -9.02,12.461 2.91,2.387 -3.71,11.406 8.75,4.242 30.24,1.059 3.18,2.386 -12.2,29.176 0.8,5.567 2.91,-0.528 2.92,2.121 -6.63,12.2 -10.61,75.586 -7.69,61.788 -5.83,52.78 0.53,2.65 -4.78,6.36 -10.07,-12.19 1.59,-8.49 -0.53,-2.92 -2.92,-2.12 -1.59,8.49 -2.39,2.91 -2.65,0.53 -2.92,-2.38 -0.53,-2.65 2.39,-3.18 -2.92,-2.13 2.13,-3.18 -5.31,0.79 -3.18,-2.38 -0.53,-2.39 2.38,-3.18 6.64,7.16 7.16,-6.37 0.26,2.39 2.65,-2.92 -9.02,-4.24 4.25,-9.02 -9.28,-45.081 2.12,-3.18 -6.1,-23.871 -1.33,-7.957 -8.75,-4.242 -9.55,-9.551 -2.38,3.184 -14.33,-3.446 -0.26,-2.652 2.12,-3.18 -8.75,-4.246 -16.71,35.535 0.53,5.309 -13.26,21.215 -7.69,23.073 -10.87,18.03 -6.9,9.29 -5.31,0.79 -3.17,-2.12 0.79,-14.06 -5.3,-15.64 4.51,-6.105 -1.6,-10.871 -2.39,0.265 -3.18,-2.125 6.37,-11.933 -4.51,-68.157 -0.8,-5.304 2.39,-3.18 -3.18,-2.125 3.98,-11.668 -12.73,-11.668 4.5,-6.367 -5.3,0.797 -6.1,-4.508 -0.26,-2.652 2.12,-2.918 2.65,-0.532 -3.18,-2.386 -3.18,14.32 -8.49,-1.59 -3.19,-2.121 -18.558,-13.793 -10.609,1.328 -0.797,13.789 5.043,15.914 11.137,1.063 2.387,-3.184 8.757,4.508 7.42,70.281 v 16.442 l 2.12,-3.184 7.96,-1.058 3.18,2.121 1.59,10.871 -4.51,6.101 -7.95,1.328 1.59,49.061 -0.8,13.79 1.33,8.22 2.91,2.39 -3.71,11.4 -22.274,-2.38 -5.571,0.79 6.895,7.43 2.918,2.39 -4.242,8.75 1.855,13.52 22.019,-0.53 39.24,5.31 13.53,-1.86 -0.8,-5.57 -5.3,0.8 -3.18,-2.13 5.57,-17.5 -1.59,-10.61 22.27,-36.33 21.22,-41.374 1.59,-8.488 6.9,-9.282 5.3,-0.797 3.18,2.125 1.59,10.875 -2.38,3.18 9.81,28.641 -2.39,3.18 7.69,15.39 4.25,45.88 14.06,39.25 -6.9,9.28 -3.18,-2.39 -0.54,-2.65 -4.5,6.1 2.91,2.39 7.69,-3.98 9.02,4.25 0.27,2.64 -2.13,3.19 6.11,4.5 -4.51,6.11 -2.65,0.52 -3.19,-2.12 -1.32,-8.22 -4.51,6.1 -7.96,1.33 0.27,2.65 -2.39,2.92 6.36,4.77 44.03,1.86 39.51,5.04 10.61,-1.6 z m -90.7,-9.55 -2.38,0.53 1.85,-5.83 2.92,2.12 z m -79.3,-38.18 -5.3,0.79 5.04,-3.18 z m 123.59,-20.69 3.71,-0.53 1.33,7.95 -4.51,-3.44 z m -11.41,-1.06 -2.65,0.53 -0.53,-2.92 z m -156.47,1.06 -5.3,0.8 4.51,-6.37 3.18,2.39 z m 18.3,-32.09 -2.65,0.53 -0.8,-5.3 3.19,2.38 z m 171.59,-27.58 -2.39,0.26 2.13,-3.18 z m -62.06,6.1 -2.92,0.53 2.39,-3.18 z m 53.57,-27.05 -2.65,0.26 -2.92,-2.12 2.13,-3.182 2.65,-0.265 z m -118.01,0.79 -2.65,0.27 -0.8,-5.309 5.3,-0.793 0.54,2.922 z m 3.98,-11.402 -5.57,0.797 1.59,-8.488 2.65,-0.528 2.92,2.387 0.53,2.649 z m -74,-16.707 0.27,2.652 -3.18,-5.039 z m 131.28,-22.016 -0.8,-3.445 5.57,6.899 -3.97,0.527 z m -123.59,-1.058 -8.22,1.328 4.51,-6.367 3.18,2.39 z m 102.9,-28.906 -2.91,0.265 -0.27,-2.386 z m -81.41,-49.063 1.06,2.387 -7.69,3.711 -1.07,-2.387 z m 188.29,15.91 -2.92,0.266 2.13,-5.57 3.18,2.386 z m 1.06,-11.136 -2.65,0.531 -3.45,-5.305 2.66,-0.265 3.18,2.386 z m -193.86,-9.547 2.12,1.59 -2.12,3.183 -2.12,-1.594 z m -25.99,8.75 3.98,-0.532 4.77,3.45 -8.22,1.062 z m 24.4,-19.625 2.65,-0.532 0.79,5.571 -8.22,1.324 z m -23.34,8.488 4.24,-0.531 4.78,3.445 -8.23,1.328 z m 239.21,-64.977 -9.28,12.196 -3.18,-2.117 9.55,-9.817 -0.27,-2.648 8.49,1.59 -5.31,0.796"
         style="fill:#100e0d;fill-opacity:1;fill-rule:evenodd;stroke:none"
         id="path22" /><path
         d="m 898.969,1107.19 -2.922,-2.39 2.387,-2.91 22.015,-0.53 10.606,-1.59 -0.528,-2.65 2.387,-3.19 5.301,-0.79 3.183,2.38 0.266,2.66 10.871,-1.59 -6.894,-9.82 -4.508,-13.26 -3.18,-2.12 2.387,-3.18 -5.57,0.79 -6.102,-4.5 11.934,-67.633 -8.75,-4.508 -0.797,-5.304 2.386,-3.184 5.039,-0.797 3.184,2.391 -2.652,0.531 0.531,2.649 2.652,-0.262 -0.531,-2.918 2.387,-3.184 -2.918,-2.121 10.875,-56.754 -1.063,-24.402 4.774,-6.098 1.859,-44.289 4.508,-6.101 0.531,-33.153 4.774,-6.093 -1.328,-7.957 4.507,-6.368 33.68,3.45 2.39,-3.184 -3.98,-7.426 -0.53,-2.918 2.39,-3.183 -14.321,-3.18 -3.715,-7.691 -0.531,-2.918 2.121,-2.918 -23.601,6.101 -8.223,1.324 -2.918,-2.121 2.125,-3.179 -0.797,-5.305 -11.406,-3.981 2.918,2.387 -4.508,6.102 -2.652,0.265 -2.918,-2.125 -1.324,-7.957 -2.653,0.27 -3.183,-2.387 -2.121,3.18 -3.18,-2.387 -5.309,0.797 -1.855,24.93 20.422,8.218 6.363,7.161 -2.121,2.918 -2.653,0.531 -3.179,-2.121 8.219,17.765 -8.75,15.117 3.976,7.692 -2.387,2.922 -8.75,34.211 -3.714,31.027 -2.122,24.93 -6.097,50.39 -6.102,33.948 -2.652,0.26 -6.363,-4.51 -9.547,-28.901 2.386,-3.183 -0.796,-5.305 -2.387,3.18 -2.652,0.531 -6.098,-4.774 -0.531,-2.652 2.386,-3.183 2.649,-0.262 3.183,2.387 -8.75,-40.047 -8.484,-20.953 -4.777,-32.09 -5.305,0.797 -9.281,-6.895 2.121,-2.918 2.918,-0.531 -0.793,-5.567 -23.074,-7.429 -2.387,2.918 -7.957,1.328 -3.184,-2.125 -63.121,94.152 0.535,2.649 2.914,2.386 -9.015,12.2 -3.184,-2.118 -0.265,-2.656 -33.68,51.451 -5.305,0.8 -3.18,-2.13 -0.535,-22.008 -1.058,-7.953 2.121,-2.922 -2.914,-2.386 0.261,-36.067 -3.183,-2.121 4.242,-8.754 -0.262,-19.355 -0.265,-2.656 -7.426,6.632 -5.305,0.797 -3.179,-2.387 -0.797,-5.308 12.992,-7.422 2.922,-16.977 -2.387,-16.175 7.688,-3.715 7.957,-1.059 -0.797,-5.57 -13.789,-0.531 -3.184,-2.387 -0.262,-2.918 -5.043,-5.832 9.02,-7.957 6.098,12.992 -10.344,-1.59 -13.528,-7.426 -15.91,-4.773 -9.015,-4.508 -7.957,1.324 -3.715,11.672 4.773,12.993 -2.387,3.183 22.547,4.774 2.118,32.621 0.531,134.729 -10.078,6.89 -8.75,-4.24 -1.325,8.48 -6.898,9.29 14.855,8.75 7.954,-1.33 3.183,2.39 -2.387,3.18 12.461,9.02 2.657,-0.26 3.183,2.12 2.387,-2.92 2.387,-0.53 3.183,2.38 1.321,7.96 20.421,8.22 2.918,2.12 9.282,-12.19 -5.301,0.79 -3.184,-2.39 2.121,1.6 6.895,-9.29 -2.121,-1.59 -2.387,3.18 -8.223,1.33 -6.097,-4.78 12.465,-29.17 11.668,-12.73 -1.325,-8.22 12.465,-10.08 -1.062,-7.952 2.121,-3.183 2.652,-0.266 3.184,2.121 6.894,-9.015 -1.058,-8.219 12.465,-7.164 8.484,-17.77 48.531,-62.32 2.656,-0.266 6.364,4.774 5.57,20.949 5.57,18.563 1.59,10.613 4.504,-6.102 6.367,4.508 0.797,5.57 -2.387,2.914 -5.304,0.797 -3.18,-2.117 0.793,5.301 3.184,2.387 2.121,-3.184 2.652,-0.527 3.184,2.386 1.324,8.219 -2.387,2.918 -5.305,0.797 6.895,10.078 -1.59,8.485 3.18,2.125 -2.387,3.179 20.688,65.501 3.183,2.39 1.59,10.61 -4.773,6.37 -18.828,2.65 -2.387,3.18 -3.184,-2.12 -2.387,0.27 1.594,10.6 5.301,-0.79 3.449,5.03 1.594,10.61 -2.391,3.19 3.184,2.38 15.914,-5.03 z m 5.832,-17.23 4.242,-0.8 0.531,4.24 -4.242,0.53 z m -32.621,1.85 3.976,-0.53 0.797,3.98 -4.242,0.79 z m 64.445,-9.54 -7.957,1.32 7.691,-3.71 z m -30.234,-20.16 3.98,-0.53 0.531,3.97 -3.98,0.8 z m -7.957,-15.38 4.246,-0.53 0.527,3.98 -4.238,0.79 z m -214.551,15.11 0.797,5.31 -3.184,-2.13 z m 204.211,-29.96 -2.653,0.26 2.122,-2.92 z m -11.938,-25.73 -2.648,0.53 1.855,-6.1 z m 48.004,-9.814 -2.121,3.184 -3.715,-5.04 2.387,-2.917 2.652,-0.532 z m -236.562,34.744 -2.918,0.26 -3.184,-2.38 5.57,-0.8 z m 234.972,-45.615 3.977,-0.531 0.797,4.242 -4.246,0.531 z m 6.364,-11.672 -5.301,0.797 1.59,-8.485 2.648,-0.531 z m -228.875,30.767 -2.649,0.26 1.856,-5.566 z m 46.414,-20.689 -2.387,3.184 2.121,-5.832 z m 178.218,-39.781 -2.652,0.265 2.121,-2.914 z m -48.796,4.512 -2.657,0.261 1.86,-5.832 z M 760,962.656 l -2.922,0.532 4.246,-9.016 0.797,5.301 z m 18.297,-5.304 -2.121,2.918 -3.711,-4.778 5.301,-0.793 z m 95.473,-22.278 -5.305,0.797 2.387,-3.183 z m 5.308,-3.449 v 0 l 4.504,3.449 -3.977,0.528 z m 58.078,-14.055 -5.304,0.532 5.039,-3.184 z m -247.968,-5.039 4.242,-0.527 0.531,4.242 -3.977,0.531 z m -4.508,-12.996 -5.571,0.797 5.305,-3.445 z m 257.515,-42.961 3.977,-0.797 -1.059,10.078 -2.386,-5.57 z m 5.567,-17.504 -7.953,1.325 4.507,-6.364 3.184,2.387 z m -279.789,2.387 -5.571,0.797 5.305,-3.184 z m 42.168,-11.406 -2.653,0.269 -3.183,-2.386 8.222,-1.067 3.18,2.387 -1.855,2.125 -2.918,-2.387 1.593,-2.125 z m -27.586,-1.59 3.98,-0.527 0.531,3.976 -3.976,0.528 -0.535,-3.977"
         style="fill:#100e0d;fill-opacity:1;fill-rule:evenodd;stroke:none"
         id="path24" /><path
         d="m 659.75,772.504 4.242,-0.797 -0.793,-3.977 -3.98,0.532 z m -31.824,294.376 -2.918,16.98 -16.973,-3.19 10.61,-1.59 -2.918,0.26 -3.981,-3.44 2.918,-7.16 -2.387,2.92 -6.101,-4.51 -5.567,0.79 -2.121,3.19 0.793,5.3 2.918,2.39 -2.386,0.52 -14.586,-3.71 -19.36,-2.38 -14.851,-6.1 h -19.094 l 2.117,-2.92 -0.793,-5.57 2.387,-22.28 2.918,2.39 2.918,-0.53 13.789,0.8 7.16,-25.99 2.918,-35.808 4.242,-9.019 15.649,-101.043 3.183,-33.414 -9.547,-9.813 2.121,-3.183 -0.531,-2.387 -20.953,-13.524 -7.426,-12.73 -5.304,0.797 -2.387,3.179 -0.528,-2.652 -6.101,-4.508 -2.649,0.266 -1.328,-7.957 -9.015,-6.895 -5.305,0.793 -2.387,3.184 -22.277,-2.387 2.387,-3.183 -6.367,-4.504 -4.508,6.097 -5.305,0.793 -3.18,-2.386 -30.234,-0.793 -17.77,10.875 -13.789,-0.797 -4.773,6.101 3.976,7.688 -7.16,6.633 -15.117,29.437 -3.715,31.028 -0.531,32.886 3.184,2.121 -2.387,3.184 -1.324,27.844 2.914,2.125 -2.649,19.621 5.305,15.914 0.793,24.398 3.449,5.039 -2.387,3.184 1.059,7.956 1.59,29.97 3.184,2.39 16.707,0.26 6.101,4.78 -4.773,5.83 5.57,18.56 -7.957,1.33 -30.496,-1.06 -11.938,-6.36 -2.386,2.91 0.531,2.65 -5.305,0.8 -0.531,-2.65 -2.918,-2.12 -24.664,0.52 -1.59,-10.6 v -19.1 l 2.918,2.13 7.957,-1.33 h 19.356 l 7.429,-6.37 -0.797,-5.57 -12.726,-66.563 -0.27,-57.816 -2.914,-2.387 2.117,-3.184 -1.058,-7.957 -0.797,-24.66 6.367,-31.031 9.813,-6.894 -0.797,-5.571 -2.914,-2.121 -2.657,0.531 4.512,-6.367 -0.265,-2.652 22.542,-33.676 7.692,-3.715 11.668,-12.73 0.793,5.304 3.183,2.387 8.489,1.59 4.508,-6.363 -6.102,-4.508 -0.793,-5.309 2.918,-0.527 4.508,-6.102 10.609,-1.589 5.832,1.855 2.387,-3.184 2.918,2.387 2.652,-0.262 h 19.36 l 22.543,4.774 55.957,24.926 35.007,33.152 4.508,-6.102 3.715,-30.761 -6.102,-4.774 -20.421,-7.957 2.386,-22.277 6.102,4.508 11.672,3.98 2.121,-3.183 6.363,4.507 16.442,0.532 15.117,8.754 22.011,2.117 1.329,8.226 -1.329,8.485 11.407,3.711 -0.532,13.789 -5.566,0.797 -37.664,-13.79 -4.773,6.102 0.531,2.914 3.183,2.387 5.305,-0.797 -2.387,2.922 -1.859,24.926 -4.242,9.019 -4.508,6.098 6.102,4.512 -5.305,0.792 -2.391,3.184 -2.117,-1.855 2.117,-2.918 2.391,1.589 -0.266,-2.648 -3.183,-2.125 -5.305,0.797 -2.387,2.918 0.797,5.57 12.731,11.668 -2.387,3.18 1.324,8.223 -6.629,47.472 -3.183,-2.387 -11.403,-0.793 -2.125,2.915 0.531,2.652 2.918,2.387 8.489,1.324 -0.266,35.805 -7.957,1.324 -5.039,3.449 -4.242,8.75 12.199,9.019 1.059,5.571 -14.321,35.004 3.184,2.12 -4.508,6.37 0.266,2.65 2.914,2.39 -0.793,11.14 6.363,7.42 22.277,2.12 6.633,7.16 5.305,-0.79 -2.125,3.18 z m -16.442,-0.53 -2.652,0.53 -9.019,-4.24 5.57,-0.8 z m -37.925,2.92 -2.918,0.27 2.386,-2.92 z m -12.469,-9.02 0.797,5.3 -3.446,-5.03 z m -14.051,-3.71 -5.57,0.8 4.773,-6.11 z m 31.027,-12.73 -2.918,0.53 1.329,-11.14 z m -178.218,20.69 -5.571,0.79 0.266,-16.44 5.305,-0.8 0.531,2.65 z m -51.184,-11.68 -5.57,0.8 2.386,-2.92 z m 231.789,-67.093 -5.305,0.796 1.856,-5.57 2.918,2.387 z m 0,-19.094 -5.305,0.797 2.122,-3.184 z m -207.922,24.93 7.957,-1.059 -3.449,4.508 -3.976,0.531 z m 15.914,-21.481 -5.308,0.797 5.043,-3.449 z m 202.618,-62.59 -5.571,0.797 3.184,-16.973 2.387,-0.265 1.324,7.953 z m -216.145,25.992 -2.652,0.266 2.386,-2.922 z m 228.344,-36.07 -2.918,0.531 1.59,-8.488 0.531,2.387 3.183,2.386 z m -224.367,24.664 -2.649,0.531 1.856,-6.101 2.918,2.387 z m 229.668,-44.82 -2.387,3.183 -5.832,-1.855 -4.242,-10.344 6.363,4.508 5.305,-0.797 z m -231.258,33.949 -2.653,0.527 1.325,-8.484 3.183,2.387 0.266,2.386 z m 8.218,-17.769 -2.117,3.179 -9.285,-6.89 8.223,-1.063 2.652,2.121 z m 223.04,-35.274 -5.567,0.797 4.774,-6.102 2.918,2.387 z m -228.606,14.32 -2.918,0.532 2.387,-3.184 z m 237.891,-81.683 3.976,-0.531 0.531,3.98 -3.976,0.793 z m -6.102,-4.508 -2.387,3.18 -6.629,-7.422 8.219,-1.059 z m -68.953,-1.059 -5.301,0.793 -0.797,-5.304 z m -145.598,18.829 -5.304,0.796 -1.594,-10.875 8.488,1.59 z m 11.672,-15.649 0.262,2.652 -7.957,1.329 -0.531,-2.653 1.859,-5.836 0.266,2.918 3.179,2.121 z m 117.75,-19.891 -2.652,0.532 2.387,-3.18 z m -96.008,0.266 2.125,1.859 -4.511,6.098 -2.387,-1.594 z m 59.411,-5.832 -7.957,1.059 7.421,-3.981 z m -48.801,4.242 4.246,-0.531 0.527,3.98 -4.242,0.793 z m -24.664,1.063 -5.301,0.793 5.035,-3.711 z m 50.39,-13 4.243,-0.793 0.531,4.246 -7.957,-1.067 z m -27.316,1.328 4.242,-0.531 1.856,-2.387 -5.567,6.898 -0.531,-3.98"
         style="fill:#100e0d;fill-opacity:1;fill-rule:evenodd;stroke:none"
         id="path26" /><path
         d="m 282.359,1007.21 3.715,-11.405 2.653,-0.528 3.179,2.387 13.262,-21.215 13.793,-37.664 1.059,-10.605 3.449,-14.856 1.59,-8.219 -1.325,-8.218 2.387,-3.184 -3.183,-2.387 -0.266,-21.75 -11.141,-36.859 2.387,-3.184 -3.977,-7.691 -11.668,-22.809 -1.062,-8.222 -2.918,-2.387 -2.387,3.184 -9.812,-9.547 2.386,-2.918 -1.058,-8.223 -15.117,-8.75 -0.532,-2.918 2.387,-2.918 -18.828,-16.441 -5.305,0.797 0.797,5.304 -2.386,3.18 -2.657,0.266 -6.093,-4.508 2.386,-3.184 -9.019,-3.976 -9.282,-6.895 -4.773,6.098 -5.305,0.797 -9.547,-9.813 -27.316,1.59 -2.918,-2.387 -0.531,-2.918 -2.387,3.184 -16.707,-2.918 -8.223,1.324 -3.976,8.754 -3.184,-2.387 0.266,2.918 -2.387,2.918 h -19.097 l -2.387,2.914 -5.305,0.797 -3.18,-2.121 -1.324,8.485 -2.3865,2.918 -2.6563,0.531 -3.1836,-2.121 -1.0586,-8.223 -9.8125,6.895 -15.9101,5.304 -11.9336,12.469 13.5234,17.234 0.5274,2.918 22.0156,-17.238 8.2187,-1.059 11.1411,20.422 -4.243,63.649 2.918,2.387 2.387,-3.184 2.649,-0.266 6.101,4.508 -14.586,13.262 0.266,38.191 -4.508,44.817 0.531,41.109 -6.1014,14.585 -2.6523,0.27 -2.3867,3.18 3.1836,2.39 0.2617,2.65 -4.2383,6.1 -9.0195,-4.25 -0.7969,-5.3 -6.3672,-4.51 -7.9531,1.33 -2.1211,2.65 -18.0352,-10.88 -0.7929,-5.297 -5.5704,0.793 -5.8359,17.234 -2.1211,2.92 54.8985,19.63 58.8752,7.69 30.765,3.71 29.969,-1.32 47.203,-15.39 z m -19.89,14.06 -5.571,0.79 -0.793,-5.57 z m -95.207,-3.45 0.527,2.39 -2.387,0.26 -0.261,-2.39 2.121,-0.26 -15.914,-7.43 -1.856,2.66 -8.488,-6.37 -9.016,6.37 -7.957,-3.72 1.328,-7.69 11.668,-21.48 -2.652,-2.121 -1.059,-7.43 -13.261,-5.566 -0.266,-2.121 14.586,-2.121 3.449,-42.965 0.266,-32.09 -8.223,-6.098 7.16,-1.062 2.121,-2.918 -1.058,-7.16 -2.652,-2.387 3.179,-10.078 1.594,-22.543 1.855,-22.543 -2.918,-2.121 -7.691,-1.59 -10.871,9.016 -2.918,-1.856 -0.266,-2.386 2.387,-0.532 3.449,-10.343 15.379,2.918 2.121,-2.918 -6.097,-6.629 2.386,-0.266 2.121,-2.918 -5.57,-3.977 -0.527,-2.656 2.652,-0.261 2.121,-2.653 2.914,-12.996 7.43,-1.059 21.48,-5.57 -0.531,-2.387 -2.652,-2.125 -2.387,0.27 -12.73,-0.531 4.507,-5.571 10.083,3.446 16.707,-5.035 0.531,2.648 -2.125,2.656 -2.649,-2.125 -2.656,0.532 -2.117,2.652 -1.328,7.426 2.652,2.386 h 17.5 l 7.957,3.715 2.125,-2.918 13.524,7.953 2.125,-2.914 2.386,-0.265 2.914,2.121 0.532,4.773 16.175,7.692 0.532,4.773 11.402,8.223 12.73,3.179 6.899,13.793 -1.856,2.918 2.649,2.121 2.387,-0.531 2.125,-2.652 0.261,2.387 2.653,1.855 -6.364,6.102 6.364,9.015 v 17.242 l 2.918,2.121 -0.532,15.118 5.571,3.976 2.121,-2.918 -3.977,5.832 2.387,1.86 0.531,2.386 4.242,11.934 -0.796,12.465 2.917,1.859 2.122,-2.656 1.328,9.816 -2.387,0.262 -0.797,-4.773 -2.652,-2.121 -2.121,2.918 1.59,9.546 -5.305,15.649 2.656,2.121 -2.125,0.266 -7.16,3.445 -3.445,10.609 3.976,9.281 -7.426,1.063 -6.894,3.449 -12.731,14.321 -7.691,-1.329 -3.977,5.571 2.649,2.121 2.387,-0.266 1.593,9.547 -8.222,-3.711 -3.977,5.304 2.649,2.39 2.386,-0.53 0.797,4.77 -2.117,2.92 -4.773,0.79 -0.27,-2.65 1.328,-7.69 -5.57,-3.98 -2.387,0.266 -4.242,5.574 -18.567,7.95 -2.914,-2.12 -1.859,2.65 -2.652,0.53 h -17.504 z m -37.395,-1.86 3.711,-0.53 0.797,3.98 -3.977,0.53 z m 151.965,-30.495 -2.656,0.531 2.39,-3.183 z m 26.785,-23.34 -2.652,0.531 2.121,-3.183 z m -182.73,10.344 4.246,-0.531 0.527,4.242 -3.976,0.531 z m -11.403,-23.071 -2.652,0.528 2.121,-3.184 z m 10.079,-61.796 -2.653,0.265 2.387,-2.918 z m 0.265,-54.895 -8.219,1.059 7.422,-6.368 2.387,-3.179 -0.531,-2.918 -3.18,-2.121 -6.367,-7.16 5.305,-0.797 3.183,2.121 4.508,-6.098 1.594,10.871 -6.899,9.281 z m 128.36,-60.203 4.242,-0.531 0.531,4.246 -3.977,0.527 z m -135.52,11.668 -5.305,0.797 4.508,-6.102 z m -24.6641,-18.297 -5.3047,0.793 -1.3242,-7.953 5.5703,-0.797 z m -19.0937,0 -5.3086,0.793 1.5937,-5.566 5.5703,-1.067 0.5313,2.656 z m 70.8088,-21.484 -2.653,0.531 2.387,-3.184 z m -24.93,-1.856 -2.652,0.531 2.386,-3.183 0.266,2.652"
         style="fill:#100e0d;fill-opacity:1;fill-rule:evenodd;stroke:none"
         id="path28" /><path
         d="m 1886.86,1181.98 c 1.86,-0.53 4.25,-0.79 6.1,-1.59 0,0 0,0 0.27,-0.26 0,0.53 0.26,0 0.52,0 4.25,-2.39 8.23,-6.9 7.7,-11.67 0.79,-1.33 0,-2.66 0.26,-3.98 -0.53,-1.06 -0.53,-2.12 -1.32,-3.18 0.26,-0.53 -0.27,-1.07 -0.53,-1.6 -0.27,0 -0.27,0 -0.27,0 0,-1.06 -0.79,-1.85 -1.32,-2.65 -1.07,-1.32 -2.13,-1.59 -3.45,-2.65 0,0.26 -0.27,0.53 -0.8,0.26 0,0 0,-0.26 0,-0.52 0,0 0,0 0.27,0 v 0 c -0.54,-0.27 -0.8,-0.8 -1.33,-0.8 0,0.27 -0.26,0.27 -0.26,0 v 0 c -1.33,-0.27 -2.66,-0.53 -3.72,-0.8 -0.26,0 -0.53,-0.26 -0.53,0 0.27,0.27 0.8,0.27 1.06,0.53 -0.53,0.54 -1.32,0.27 -2.12,0.54 0,-0.27 -0.53,-0.54 -0.53,-0.54 -0.53,0.54 -0.79,0 -1.06,0 -0.26,0 0,-0.26 0,-0.26 0.53,-0.27 0.79,0.26 1.06,-0.27 -1.06,-0.26 -2.65,-0.26 -3.71,0 -0.27,0.27 1.06,0.8 0,0.8 -0.8,-0.27 -0.8,-0.8 -0.8,-1.06 0,0.26 0,0.26 0,0.26 0,0 0,0.27 -0.26,0.27 -0.27,0 -0.27,-0.27 -0.27,-0.27 0.27,-0.26 -0.53,-0.26 -0.8,0 -0.26,0.27 -0.52,0 -0.79,0.27 -0.8,-0.27 -1.32,0.26 -2.12,0.26 -0.27,0.27 0,0.54 -0.27,0.8 -0.53,-0.8 -0.53,0.79 -1.32,0 -1.06,0 -0.8,1.33 -1.86,1.33 -0.53,0.26 -0.53,0.79 -1.06,0.53 0.53,0.26 -0.26,0.52 -0.26,0.79 -1.07,0.8 -1.6,1.86 -1.86,3.18 -0.53,0.53 0,1.33 -0.8,1.6 -0.53,0.52 0.27,1.06 -0.53,1.59 0,0.26 0.8,0.26 0.53,0.53 -0.53,0 -0.53,0.53 -0.53,0.79 0.27,0.27 -0.26,0.8 0,1.06 -0.26,1.59 0.27,3.45 0.8,5.04 0.53,0.27 0,1.33 0.79,1.59 v 0.27 c 0.8,0.53 0.27,1.59 1.33,2.12 0,0.53 0.53,1.06 1.32,1.06 l 0.27,-0.26 c 0.8,0.26 0,0.79 0,1.05 0,1.07 1.33,1.33 1.86,2.13 0.26,-0.27 0.53,0 0.53,0 0,0.26 0,0.26 0,0.26 0,0 0,0 0.26,0 0,0 0.53,0.27 0.27,0.54 -0.53,0 -0.27,0.26 0,0.26 0.26,0 0.26,-0.26 0.53,-0.26 0,0.26 0.53,0.26 0.27,0.52 -0.27,0.27 0.26,0.54 0.53,0.8 1.05,-0.53 0.52,0.8 1.59,0.53 1.06,0.79 2.38,0.79 3.71,1.06 0.53,0 1.59,0.27 2.38,0 0,0 0,0 0.27,0 z m -0.79,-2.91 c 0,0 0,-0.27 0.26,-0.27 -0.53,-0.27 -1.33,-0.27 -1.86,-0.27 0,0 0,0 -0.26,0.27 -0.53,0.27 -1.33,-0.27 -2.12,-0.8 -0.27,-0.26 -1.07,0.27 -1.07,-0.26 0,-0.53 -1.06,-0.53 -1.59,-0.8 0.27,-1.32 -1.32,0 -1.59,-1.06 1.07,-0.79 -0.79,-0.79 -0.79,-1.59 -1.33,0 -0.8,-1.59 -2.12,-1.86 -0.8,0.53 -0.8,-0.53 -1.33,-0.79 0,-0.27 0,-0.53 0,-0.8 -0.53,-0.26 0,-0.53 0.26,-0.53 -0.52,0 -0.79,-0.53 -1.32,-0.26 -0.27,-0.53 0.26,-0.53 0.53,-0.53 0,-0.54 -0.27,-0.8 -0.27,-1.06 1.33,0 -0.26,-0.53 0,-1.07 0.27,0 0.54,0.27 0.54,0.54 0,-0.27 0.52,-0.54 0.26,-0.54 0,-0.26 0,-0.26 0.26,-0.26 -0.26,-0.53 -0.52,-0.27 -1.06,-0.27 0.27,-0.26 0,-0.26 0.27,-0.52 0.53,0.26 0,-0.54 0.27,-0.54 0.26,-0.53 -0.54,0 -0.54,-0.26 0,-0.27 0,-0.53 0.27,-0.53 -0.53,-0.27 0.27,-0.53 0.27,-0.8 -0.27,-1.85 0.79,-3.18 1.32,-4.77 1.06,-0.8 1.59,-2.39 3.18,-2.12 0.54,-0.53 1.86,-0.27 1.86,-1.07 0.26,-0.26 0.53,0 0.8,0.27 0.26,0 0.79,0 1.06,-0.27 3.18,-0.26 5.83,0.27 8.75,1.07 0.26,-0.27 0,-0.8 0.53,-0.53 1.32,0.79 2.91,2.12 4.24,3.18 0.53,0.26 0.53,1.33 1.33,1.59 0.26,1.33 1.06,2.65 1.06,4.24 0.26,1.06 -0.27,2.13 0.26,2.92 0.27,0.8 0,1.86 -0.26,2.92 0,0 -0.27,0.53 -0.53,0.26 -0.27,0.8 -1.06,1.6 -1.33,2.65 -1.06,1.86 -3.18,3.45 -5.57,3.72 -0.26,0 -0.26,0 -0.26,-0.27 -0.8,0.53 -1.86,0.53 -2.65,1.07 -0.27,0.26 -1.06,0.52 -1.06,0 z m 0.26,1.85 h -0.26 c 0,0.27 0.26,0.27 0.26,0 z m 5.57,-0.26 c 0,0 0.26,-0.53 0.53,-0.27 -0.27,0 -0.27,0.53 -0.53,0.27 z m -7.43,0 c 0.27,-1.07 -1.06,0.26 -0.79,-0.53 0,-0.27 0.27,-0.8 0.53,-0.54 0.26,0.27 0,0.27 0,0.54 0.26,0.26 0.53,0 0.79,0.26 0,0.27 0,0.27 -0.53,0.27 z m 5.04,-0.8 c -0.26,0 -1.06,0 -0.79,0.53 0,0 0.53,-0.26 0.79,-0.53 z m 1.06,0.27 c 0,0 -0.26,-0.27 0,-0.27 0.27,0 0.8,-1.06 0.8,0 -0.26,0 -0.8,-0.27 -0.8,0.27 z m -3.44,-0.54 c 1.59,0.27 -0.54,-0.52 0.79,-0.52 0.53,0 0,0.52 0.27,0.52 -0.27,0.27 -1.06,0.8 -1.06,0 z m -5.04,-0.26 c 0.53,0 0.79,0.26 1.06,0.26 0,1.07 -0.8,0 -1.06,-0.26 z m -3.45,0.26 c 0,0.27 0,0.54 0,0.54 0.53,-0.27 0,-0.27 0,-0.54 z m 13.79,-0.26 c 0,-0.26 0.27,-0.26 0.53,-0.53 0,0.27 -0.53,0.53 -0.53,0.53 z m -7.43,-0.26 c 0.27,-0.27 0.54,-0.27 0.8,0 0,0.26 -0.8,0.26 -0.8,0 z m 4.25,-0.27 v 0 0.27 z m 0.53,0 c 0.53,-0.27 1.33,-0.27 2.12,-0.53 -0.53,0.26 0,0.26 0,0.26 -0.27,0.27 0,0 -0.27,-0.26 -0.26,0.8 -1.06,0.53 -1.85,0.53 z m -8.76,0 c 0,-0.27 0.27,0.27 0.54,0 0,0.53 -0.54,0.27 -0.54,0 z m -2.38,0.27 c 0.27,-0.27 -0.26,-0.27 0,-0.54 h -0.26 c -0.27,-0.26 -0.8,-0.26 -0.27,-0.26 0.53,-0.53 0.27,0.53 1.06,0.26 0,0.27 -0.26,0.54 -0.53,0.54 z m 1.32,-0.27 c -0.26,0 -0.26,0 -0.53,-0.27 0.27,-0.26 0.53,0 0.8,0 0.27,0.54 0,0.27 -0.27,0.27 z m 14.06,-1.59 c 0.27,0.26 0.27,-0.27 0.8,0 0.26,0.79 -0.8,0 -0.8,0 z m -18.03,-0.27 c 0.53,-0.53 -0.53,-0.53 -1.06,-0.53 0.26,-0.27 0.53,-0.79 0.53,-1.06 -0.27,0 -0.53,-0.26 -0.8,-0.26 0.27,-0.8 0.8,0 1.33,0 0,0.26 1.06,0.53 0.26,0.53 0,0.26 0.27,0.79 0.53,1.06 -0.53,-0.27 -0.53,0.53 -0.79,0.26 z m 1.06,-0.53 c 0,-0.27 0.26,-0.53 0.53,-0.27 0,0.27 -0.8,1.33 -0.53,0.27 z m 19.09,-0.53 c -0.26,-0.26 0.27,-0.26 0,-0.53 -0.26,0 -0.26,0 -0.26,0.27 -0.27,-0.8 0.26,0.26 0.79,-0.27 0,0.53 -0.26,0.53 -0.53,0.53 z m -22.28,-1.59 h 0.27 v 0.26 h -0.27 z m -1.32,-2.65 h 0.26 v 0 l -0.26,0.26 z m -0.27,-6.9 c -0.26,0 -0.79,-0.26 -0.53,0.27 0.27,0.26 0.27,0 0.53,-0.27 z m -1.06,-2.92 c 0.27,0 1.06,-0.52 1.06,0 -0.26,0 -1.06,0.27 -1.06,0 z m 2.13,-0.26 c -0.27,0 -0.27,0.26 -0.27,0.26 0,0.27 0.27,0 0.27,-0.26 z m 0,-0.79 c -0.27,0 0,0.26 0,0.26 0.26,0 0,-0.26 0,-0.26 z m -1.07,-0.54 c 0,-0.26 -0.26,0 0,0.27 z m 1.33,-0.79 c 0.26,-0.26 0,0 -0.26,0 0,0 0.26,0.26 0.26,0 z m 4.78,-4.24 c -0.27,0 -0.54,0 -0.27,0 0.27,0 0.27,0 0.27,0 z m 13.25,-1.06 c -0.26,0 -0.79,-0.27 -0.52,-0.53 0.52,0 0.26,0.53 0.52,0.53 z m -12.2,-1.07 c 0.27,0 0.27,0 0.53,0 v 0 c 0,0.27 -0.26,0.27 -0.53,0 z m 4.78,0 c 0,-0.26 0.53,-0.26 0.53,-0.26 1.33,0.26 -0.27,0.26 -0.53,0.26 z m -2.92,-0.26 c 0.27,-0.27 0.53,-0.27 0.53,0 0,0.53 -0.53,0 -0.53,0 z m 17.51,19.36 c 0.26,-0.27 0.26,-0.53 0.79,-0.53 0,0 0,0.26 0,0.53 0,0.26 -0.79,0.26 -0.79,0 z m 0.52,-2.92 c 0,0 0,0 0.27,0 0,0 0,0 0,0.27 0,0.26 -0.53,0 -0.27,-0.27 z m -1.59,-5.83 h 0.27 v 0 h -0.27 z m 0.54,-3.45 c 0,0 -0.27,-0.27 0,-0.27 0,0 0.26,0.27 0,0.27 z m -0.27,-0.79 c -0.27,-0.27 1.06,2.38 1.32,2.38 0.27,0 -1.32,-2.38 -1.32,-2.38 z m -0.53,1.05 c 0.26,0 0.53,0 0.53,0.27 0,0.27 -0.8,0.27 -0.53,-0.27 z m 0,-0.26 c 0,0 -0.27,0 0,0 0.26,0.26 0,0 0,0 z m -0.8,-0.79 c 0.27,-0.8 0.27,0.26 0.8,0 0,0.79 -0.27,-0.27 -0.8,0 z m 0,0.26 h 0.27 v 0.26 h -0.27 z m 0.53,-1.06 c 0.27,0 0.27,0 0,-0.27 -0.53,0 -0.53,0.27 -0.79,0.53 -0.27,0 -0.27,-0.26 -0.27,-0.26 0.27,0 0.53,-0.53 0.8,-0.27 0.26,-0.53 0.53,0 0.79,0.27 0.54,0.8 -0.53,0.26 -0.53,0 z m -0.53,-1.06 c 0,-1.07 -1.32,-1.33 -1.59,-2.12 0,0 -0.26,-0.54 0.27,-0.27 0.53,0.8 1.59,1.32 1.85,2.12 -0.26,0.27 0.27,0 0.27,0.27 0.8,1.06 -0.53,0 -0.8,0 z m -2.38,-0.27 c -0.27,0 0,0.27 0,0.27 0.26,0 0.26,0 0,-0.27 z m -2.13,-3.18 c 0.27,-0.26 0.8,0 1.07,-0.26 -0.27,0 0,0 0,0 0.26,0 0,0.26 0.26,0.53 -0.53,0 -1.33,0 -1.33,-0.27"
         style="fill:#100e0d;fill-opacity:1;fill-rule:evenodd;stroke:none"
         id="path30" /><path
         d="m 1885.54,1175.35 c 2.91,-0.8 3.71,-1.59 4.77,-2.39 -0.27,-0.53 0.53,-0.79 0,-1.06 -0.53,-0.26 0.26,-0.79 0,-1.06 0.26,-0.53 0,-0.79 0,-1.06 0,-0.26 0,-0.53 -0.27,-0.53 0.27,-1.06 -0.53,-1.06 -0.79,-1.86 -0.53,-0.26 -0.8,-0.79 -1.33,-1.05 -0.26,-0.27 -1.06,0 -0.79,-0.8 0.26,-0.27 0.79,-0.53 1.06,-1.06 0.26,0 0.53,-0.27 0.79,-0.53 -0.26,-0.8 0.8,-0.27 1.06,-1.33 0,0 -0.26,-0.26 -0.26,-0.53 0,-0.27 0.53,0 0.79,-0.27 0.54,0 0.27,-0.52 0.27,-0.79 0.27,-0.26 0.79,0.27 0.79,0.27 0.27,0.26 0.8,0.26 1.33,0.26 0,0 0.27,-0.26 0.27,-0.53 0,-0.26 -0.27,-0.26 -0.27,-0.53 0.53,-0.8 -0.53,-0.53 -0.8,-0.53 -0.53,-0.79 -1.32,0 -1.85,-0.53 -0.27,-0.26 0,-0.53 0,-0.53 0,-0.27 -0.27,-0.27 -0.27,-0.27 v 0 c -0.53,0 -0.79,-0.79 -1.32,-0.79 0,0.53 -0.27,1.06 -0.27,1.85 0.53,0.27 1.06,0.27 1.33,0.53 0,0.54 -0.27,0.54 -0.53,0.8 -0.27,0.27 -0.53,0.79 -1.06,1.33 -0.53,1.06 -2.12,1.85 -2.65,3.18 -0.54,0.26 -1.33,0.53 -2.13,0 -0.53,0 0,-0.27 0.27,-0.53 0,-0.8 0.27,-1.59 -0.27,-2.12 0.54,-0.53 0,-1.07 0.27,-1.59 -0.27,-0.27 -0.53,-0.53 -0.8,-0.8 0,-0.27 0.27,0 0.53,0 0.27,0 0.8,0 1.06,-0.27 0.27,0 0.53,0.27 0.8,0 -0.27,-0.26 -0.27,-0.79 -0.53,-0.79 -0.27,-0.26 0,-0.26 0.26,-0.53 -0.26,-0.8 -1.05,0 -1.59,-0.27 v 0 c -0.26,0 -0.53,0 -0.79,0 -0.8,0.54 -1.6,-0.53 -2.39,0 -0.53,0.54 -0.53,1.06 -0.27,1.33 0.27,0.53 0.8,0.26 1.33,0.53 0,0.53 -0.27,1.32 0.27,1.86 0,0.53 0.26,1.06 0,1.32 0.26,0.27 0,0.27 0,0.8 0,0.79 0,1.32 0,2.12 0,0.53 0.26,0 0.53,0.26 0.26,-0.26 0.53,-0.26 0.53,0 -0.53,0 -0.53,1.07 -1.06,0.27 -0.27,0.26 0,0.53 -0.27,0.8 0.27,0.53 0,0.79 0.27,1.05 0.26,0.27 -0.27,0.54 0,1.07 -0.27,0.26 0.26,0.53 0.26,0.79 0,0.53 0,0.8 0,1.33 0,0 -0.26,0.53 -0.53,0.53 -0.27,0 -0.79,0 -0.27,-0.27 -0.26,-0.26 -0.52,-0.26 -0.79,-0.53 0,0.27 -0.27,0 -0.53,0 -0.27,0.27 0.53,0.27 0.53,0.8 -0.27,0 -0.27,0 -0.53,0 -0.79,-0.27 0,0.8 -0.27,1.06 -0.26,0.27 -0.52,0 -0.52,0.27 0,0.26 0,0.26 0.26,0.26 1.33,0 2.65,0.53 4.24,0.8 z m -0.8,0 h -0.27 z m -1.06,-1.32 c -0.27,0 -0.53,0 -0.27,-0.27 l 0.27,-0.26 c 0,0.26 0,0.53 0,0.53 z m 2.39,-0.8 c -0.27,0 -1.07,0.27 -0.53,-0.27 -0.27,-0.26 -0.27,0 -0.54,0 -0.53,-0.26 -1.05,0.27 -1.59,0 0,-0.79 0.27,-1.59 0,-2.38 0.27,-0.53 0.27,-1.33 0.27,-1.86 0.27,-0.26 0.53,-0.26 0.53,-0.26 0.26,-0.27 0.79,0 1.06,-0.27 0,0 0.27,-0.26 0.27,0 0.79,0.27 0.26,-0.8 0.79,-0.8 0.26,0 0.53,0.54 0.8,0.54 0.26,0 0.79,0 0.53,0.26 0.79,0.27 1.06,1.06 1.32,1.86 -0.26,0.26 0,0.79 0,1.06 0,0.26 -0.26,0.53 -0.26,0.53 -0.27,0.26 -0.53,0.26 -0.8,0.53 -0.26,0 -0.26,0.53 -0.53,0.53 v 0 c -0.26,0.53 -1.06,0.26 -1.32,0.53 z m -2.92,-4.77 c -0.27,0 -0.53,-0.27 -0.53,-0.53 0,0 -0.27,-0.54 0,-0.54 0.26,0.27 0.53,0.54 0.79,0.8 0,0 -0.26,0 -0.26,0.27 z m -0.53,-2.39 c 0,0 0,0 0.26,0 0,0 0,0 0,0.27 0,0 -0.26,0 -0.26,-0.27 z m -0.53,-1.86 v 0 0 0 z m -0.53,-4.77 c -0.27,0 -0.27,-0.26 0,-0.26 v 0 c 0.26,0.26 0,0.26 0,0.26 z m 1.85,-0.53 h 0.27 c 0,0.27 -0.27,0.27 -0.27,0 z m 1.33,8.22 -0.27,0.26 h -0.26 l 0.26,-0.26 h -0.26 v -0.27 h 0.53 z m 3.45,0.26 v 0 l 0.26,0.54 -0.26,-0.27 z m 1.32,5.31 -0.26,0.26 v 0 -0.26 l -0.27,-0.27 h 0.53 z m 0.8,-12.73 v 0 h 0.53 c 0.27,0.26 0,0.53 0,0.53 z m -4.77,6.37 0.53,-0.27 v 0.27 h -0.27 v 0.26 0 h -0.26 z m -3.45,7.16 -0.27,0.53 h -0.26 l 0.26,-0.27 h -0.26 v -0.26 h 0.53 z m 0.26,-11.41 v 0 l 0.27,0.53 -0.27,-0.26 v -0.27"
         style="fill:#100e0d;fill-opacity:1;fill-rule:evenodd;stroke:none"
         id="path32" /><path
         d="m 935.035,1264.2 c 5.305,-0.8 10.871,-0.54 15.91,-2.13 0,-0.26 0.266,-0.26 0.532,-0.53 0.265,0.8 0.796,0 1.328,0 11.668,-5.3 23.07,-15.91 23.601,-29.7 2.121,-2.91 1.328,-6.89 1.86,-10.34 -0.532,-3.19 -0.532,-6.37 -1.594,-9.29 0.527,-1.85 -0.266,-3.17 -0.797,-4.77 -0.527,0 -1.062,0 -1.062,-0.53 0.269,-2.12 -1.059,-4.77 -2.118,-7.16 -1.859,-3.98 -4.773,-5.57 -7.429,-8.75 -0.528,0.53 -1.325,1.32 -1.856,0.26 -0.531,-0.26 -0.262,-0.53 -0.262,-1.06 0,0 0.262,-0.26 0.528,-0.26 0.265,0.26 0.265,0.26 0.265,0.26 -0.793,-0.79 -1.589,-2.91 -2.918,-2.38 -0.265,0.26 -0.531,0.26 -0.793,-0.27 0,0 0,-0.26 0,-0.53 -3.183,-0.79 -6.367,-2.39 -9.019,-3.45 -0.527,0 -1.063,-0.53 -1.324,0.27 0.797,0.53 2.121,0.53 2.386,1.59 -1.062,1.59 -3.183,0.26 -5.039,0.53 -0.265,-0.8 -1.328,-1.33 -1.593,-1.33 -0.793,1.06 -1.59,-0.26 -2.653,-0.53 0,-0.26 0.532,-0.53 0.797,-0.8 1.063,-0.52 1.59,1.33 2.387,-0.26 -2.918,-1.06 -6.363,-1.59 -9.281,-1.59 -0.797,1.06 2.386,3.18 -0.532,2.65 -1.324,-1.06 -1.058,-2.39 -1.324,-3.18 0,0 0.266,0.27 0.266,0.53 -0.531,0.26 -0.531,0.8 -1.063,0.53 -0.531,0 -0.265,-0.53 -0.265,-0.79 0.531,-0.53 -1.856,-0.53 -2.387,-0.27 -0.531,0.53 -1.328,0 -2.121,0 -1.324,-0.79 -3.184,0.27 -5.039,0.27 -0.531,0.52 0,1.85 -1.063,2.11 -0.793,-2.64 -1.59,2.13 -3.179,0 -2.918,-0.52 -2.653,2.93 -5.571,2.93 -1.062,0.26 -1.062,1.59 -2.386,1.06 1.062,0.79 -0.532,1.32 -1.063,1.59 -2.914,2.38 -4.773,5.04 -5.832,8.48 -1.328,1.06 -0.531,3.72 -2.387,3.98 -1.59,1.06 0,2.65 -1.59,3.98 -0.269,0.8 1.59,1.33 0.528,1.86 -1.063,0 -1.063,1.32 -1.59,1.86 0.527,0.79 -0.531,1.85 0.266,2.91 -1.329,4.51 -1.063,9.55 -0.266,14.32 1.324,0.8 -0.797,3.71 1.324,4.51 0,0.26 -0.531,0.79 0.266,0.79 1.062,1.86 -0.528,4.78 1.59,6.37 0.269,1.59 1.593,3.18 3.183,3.71 0.266,-0.26 0.532,-0.79 1.063,-0.53 1.59,0.8 -0.266,1.33 -0.531,2.13 -0.266,3.44 3.183,4.24 4.242,6.89 0.265,-0.8 0.531,0.27 0.797,0.27 0,0.52 -0.266,0.52 -0.266,0.79 0.266,-0.53 0.531,-0.27 1.062,-0.27 0,0.53 1.059,1.07 0,1.59 -1.062,-0.26 -0.531,0.53 0,0.8 0.528,0 0.793,-0.53 1.325,-0.27 0.265,0.54 1.328,0.8 1.062,1.6 -0.797,0.53 0.528,1.33 0.793,1.85 2.652,-0.52 1.063,2.92 3.715,2.39 2.387,2.39 5.832,2.92 8.75,4.51 1.59,-0.26 3.98,0.8 5.57,0.26 0.266,0.27 0.532,0.54 0.797,0.54 z m -1.062,-8.76 c 0.265,0 0.531,-0.26 0.797,-0.26 -1.063,-1.06 -2.653,-1.33 -3.977,-1.86 -0.266,0.27 -0.535,0.53 -0.535,0.8 -2.117,0.53 -3.977,-1.07 -5.301,-2.66 -0.531,-0.79 -2.918,0.27 -2.652,-1.05 0,-1.86 -2.121,-2.13 -3.45,-2.92 1.063,-3.45 -3.445,-0.53 -3.71,-3.45 2.918,-1.86 -1.329,-2.65 -1.329,-4.77 -3.445,-0.54 -1.589,-5.04 -4.773,-5.57 -1.855,1.06 -1.855,-1.86 -2.652,-2.39 0,-0.79 0,-2.12 0,-2.38 -1.325,-1.33 0.265,-1.33 1.062,-1.6 -1.062,-0.26 -1.59,-1.86 -3.183,-1.33 -0.266,-1.32 0.796,-1.32 1.593,-1.59 0.266,-1.05 -0.265,-1.59 -0.531,-2.38 3.184,0 -0.531,-1.86 0.531,-2.92 0.793,0 1.059,0.8 1.325,1.33 0,-0.53 1.328,-1.06 0.796,-1.6 -0.265,-0.26 0,-0.53 0.266,-0.53 0,-1.59 -0.797,-0.52 -1.859,-0.79 0,-0.53 -0.262,-1.32 0.265,-1.32 1.328,0.79 0.532,-1.6 1.328,-1.6 0.793,-1.32 -1.328,-0.53 -1.593,-1.32 0.531,-0.27 0.265,-1.07 1.062,-1.07 -1.59,-0.53 0.797,-1.32 0.797,-2.12 0.266,-4.77 3.18,-8.48 5.566,-12.2 2.653,-2.12 4.508,-6.1 7.957,-5.3 1.59,-1.06 4.774,0 5.305,-1.59 0.531,-0.8 1.59,0 1.59,0.79 0.797,0 1.859,0.27 2.652,-0.26 7.957,0.53 15.118,2.92 21.75,5.57 0.793,-0.53 0,-1.86 1.59,-1.06 3.184,2.91 6.363,6.63 9.016,10.08 1.328,1.59 0.797,3.71 2.652,5.3 0.531,3.98 1.856,7.42 1.324,11.94 0.27,2.64 -1.324,5.57 -0.261,7.95 0,2.65 -0.797,5.04 -1.594,7.96 -0.793,0.52 -1.59,1.32 -2.121,0.52 -1.059,2.39 -2.918,4.51 -3.977,6.9 -3.183,4.77 -9.281,8.75 -15.648,8.22 0,-0.26 0,-0.26 -0.266,-0.53 -2.121,0.8 -4.508,0.53 -6.629,1.6 -0.797,0.79 -3.183,1.06 -3.183,-0.54 z m 0.265,5.57 c -0.265,-0.26 -0.531,-0.26 -0.531,0 0,0.27 0.797,0.8 0.531,0 z m 13.793,1.33 c 0.528,0 0.793,-1.33 1.59,-1.06 -0.797,0 -0.797,1.33 -1.59,1.06 z m -18.035,-2.65 c 0.531,-2.92 -2.918,0.26 -2.125,-2.12 0.27,-0.53 0.797,-1.59 1.859,-1.33 0.797,0.8 -0.531,1.33 -0.265,2.12 0.265,0.53 1.062,-0.27 1.59,0.53 0,0.8 -0.262,1.06 -1.059,0.8 z m 12.465,-0.27 c -0.797,0 -2.652,-0.26 -2.121,1.06 0.262,-0.53 1.324,-0.53 2.121,-1.06 z m 2.914,0.53 c -0.527,0.27 -0.793,-0.53 -0.262,-0.53 1.059,0.27 2.649,-2.38 2.387,0 -0.797,0.27 -2.125,-0.53 -2.125,0.53 z m -8.484,-2.38 c 3.711,1.06 -1.325,-1.86 2.121,-0.8 1.59,-0.27 -0.266,0.8 0.531,1.06 -0.797,0.53 -2.918,1.86 -2.652,-0.26 z m -12.2,-2.39 c 0.793,-0.27 1.329,0.53 1.856,1.32 0,2.39 -1.856,-0.79 -1.856,-1.32 z m -8.753,-0.27 c -0.528,0 -0.528,0.8 0,0.8 0.796,-0.27 -0.262,-0.53 0,-0.8 z m 33.949,3.45 c 0.531,-0.27 1.058,-0.53 1.324,-0.53 0,0.8 -1.063,1.06 -1.324,0.53 z m -18.035,-3.18 c 0.531,-0.27 1.062,-0.27 1.589,0 0.266,1.06 -1.855,1.06 -1.589,0 z m 10.078,1.32 h 0.531 v 0.54 l -0.531,-0.27 z m 1.855,0 c 1.063,-1.06 3.449,-0.26 5.039,-0.79 -1.062,0.27 0.531,0.53 0.266,0.79 -0.793,0.27 0,-0.52 -0.531,-0.52 -1.325,1.59 -3.184,0.26 -4.774,0.52 z m -22.012,-3.18 c 0.532,-0.8 0.797,0.53 1.325,0 0.265,1.59 -1.325,0.8 -1.325,0 z m -5.57,-0.53 c 0.266,-0.53 -0.793,-0.79 0,-1.06 -0.265,-0.27 -0.527,-0.27 -1.058,-0.27 0,-0.53 -1.594,-1.32 -0.532,-0.79 1.59,-1.33 1.063,1.59 2.653,1.33 0,0.79 -0.266,1.05 -1.063,0.79 z m 2.918,0.26 c -0.531,-0.26 -0.797,-0.79 -0.797,-1.32 0.797,-0.27 1.328,0.53 1.86,0.79 0.265,0.8 -0.532,0.53 -1.063,0.53 z m 35.274,0.54 c 0.796,0.53 1.062,-0.54 2.121,0 0.265,2.12 -1.856,0 -2.121,0 z m -44.555,-7.7 c 1.855,-1.32 -1.063,-1.32 -1.856,-1.85 0.532,-0.53 1.059,-1.33 1.59,-2.12 -0.531,-0.53 -1.324,-0.8 -1.855,-1.33 0.531,-1.86 2.121,0.53 3.445,0.53 -0.262,0.53 1.859,1.86 0,1.59 0,0.54 0.266,1.86 0.797,2.65 -0.797,0 -1.328,1.6 -2.121,0.53 z m 2.918,-0.79 c 0.265,-0.26 0.793,-1.59 1.324,-0.53 0.266,1.06 -2.387,3.45 -1.324,0.53 z m 47.472,5.31 c -0.265,-0.53 1.059,-0.8 0.262,-1.33 -0.262,0 -0.527,0.26 -0.793,0.26 -0.265,-1.85 1.059,1.07 2.121,0.27 0.266,1.06 -0.797,1.06 -1.59,0.8 z m -54.367,-11.94 h 0.528 v 0.53 h -0.528 z m -2.39,-8.22 h 0.531 v 0.53 h -0.531 z m 2.125,-18.57 c -0.797,-0.79 -1.856,-1.05 -1.594,0.53 0.797,0.27 1.062,-0.26 1.594,-0.53 z m -1.328,-9.01 c 0.796,0 2.386,-1.06 2.386,0.26 -0.793,0.53 -2.652,1.06 -2.386,-0.26 z m 5.039,0.53 c -0.266,-0.27 -0.532,0 -0.793,0.26 0.261,0.8 0.793,0 0.793,-0.26 z m 0.531,-2.65 c -0.531,0.26 -0.531,0.79 -0.266,1.06 1.059,0 0,-0.8 0.266,-1.06 z m -2.387,-1.6 c 0,-0.53 -0.797,-0.26 -0.531,0.27 0.266,0.27 0.531,0 0.531,-0.27 z m 3.711,-1.59 c 0.266,-0.53 -0.531,-0.26 -0.793,-0.53 -0.266,0.53 0.262,1.06 0.793,0.53 z m 12.996,-10.34 c -0.527,0 -1.062,-0.26 -0.527,0.27 0.262,0 0.527,0 0.527,-0.27 z m 33.153,2.39 c -0.266,-0.53 -2.122,-1.06 -1.063,-1.86 1.328,-0.26 0.531,1.33 1.063,1.86 z m -29.442,-7.43 c 0.27,-0.53 0.535,-0.27 1.063,-0.27 0,0.27 0.265,0.27 0.265,0.54 -0.531,0.79 -1.328,0.26 -1.328,-0.27 z m 11.672,1.32 c 0.266,-0.79 1.059,-0.26 1.59,-0.26 2.918,1.33 -1.324,0.8 -1.59,0.26 z m -6.895,-1.32 c 0.266,-0.53 0.793,-0.53 1.325,0 -0.793,1.59 -1.59,-0.53 -1.325,0 z m 35.801,59.14 c 0.531,-0.26 1.063,-1.33 1.86,-0.79 0.261,0.26 0.261,0.53 0.261,1.06 -0.261,0.79 -2.386,0.79 -2.121,-0.27 z m 2.121,-7.42 c 0.266,-0.27 0.266,-0.53 0.532,-0.27 0.531,0 0.265,0.53 0.265,0.8 -0.265,0.79 -1.328,0 -0.797,-0.53 z m -1.324,-16.98 h 0.531 v 0.53 h -0.531 z m 2.121,-8.75 c 0,-0.53 -0.531,-1.32 0.266,-1.32 -0.266,0.26 0.531,1.06 -0.266,1.32 z m -0.265,-2.92 c -0.532,-0.26 2.121,7.43 2.918,7.69 0,-0.26 -2.918,-7.42 -2.918,-7.69 z m -1.856,3.19 c 0.793,0 1.324,0.26 1.59,0.8 -0.527,0.52 -2.121,0.26 -1.59,-0.8 z m 0.793,-1.33 c 0,0.53 -1.059,0 -0.262,0.8 0.532,0.26 0.262,-0.53 0.262,-0.8 z m -1.855,-2.12 c 0.531,-2.12 0.531,1.06 1.593,0.53 -0.265,1.86 -0.265,-1.06 -1.593,-0.53 z m 0,0.79 h 0.531 v 0.54 l -0.531,-0.27 z m 1.593,-2.65 c 0.262,-0.26 0.262,-0.53 0,-0.79 -1.062,-0.26 -1.593,0.53 -2.386,0.79 -0.266,0 -0.532,-0.26 -0.266,-0.53 0.266,0 1.324,-1.06 1.59,-0.52 1.324,-1.07 1.855,0.26 2.387,1.05 0.531,2.12 -1.325,0.53 -1.325,0 z m -1.062,-3.44 c 0.531,-2.92 -2.652,-3.72 -2.918,-6.1 0,-0.27 -0.531,-1.33 0.531,-0.8 0.797,2.65 3.711,4.24 3.981,6.36 -0.797,0.54 0.527,0.54 0.793,1.07 1.062,3.18 -1.856,-0.27 -2.387,-0.53 z m -5.567,-1.07 c -0.531,-0.26 -0.531,0.53 0,0.53 0.262,-0.26 0.262,-0.26 0,-0.53 z m -4.777,-9.54 c 0.797,-0.8 2.121,0.26 2.918,-0.53 0,-0.53 0,0 0.266,0 0.531,0 0.265,1.06 0.265,1.59 -1.062,0 -2.918,-0.53 -3.449,-1.06"
         style="fill:#100e0d;fill-opacity:1;fill-rule:evenodd;stroke:none"
         id="path34" /><path
         d="m 871.121,1181.45 -20.16,-0.79 -0.527,3.44 -1.86,1.06 -0.793,1.86 2.121,0.8 5.832,0.79 -2.914,1.86 -2.121,15.11 v 6.1 l -1.855,6.9 0.797,1.86 -0.797,1.85 2.117,3.18 -1.856,0.8 -0.792,-0.27 -2.653,17.25 -1.062,0.26 -4.774,0.53 0.531,1.06 -0.531,1.33 -0.797,0.26 -0.261,2.39 -0.797,0.26 0.265,1.07 -0.531,1.32 4.774,-0.53 0.796,-1.86 2.653,-0.79 2.121,2.38 2.652,-1.32 3.184,2.12 6.363,0.79 2.918,-1.06 -0.266,-0.79 -1.062,0.53 0.266,0.53 -1.325,-0.53 -0.265,-0.79 0.793,-0.53 3.183,-0.27 1.59,2.12 0.797,-0.53 0.797,1.85 4.246,0.8 2.648,-0.53 -0.531,-0.8 1.063,-0.52 2.652,3.44 6.363,1.06 3.981,1.07 2.121,-1.33 -0.531,1.33 1.855,1.59 3.449,2.65 v -4.51 l 2.121,-9.02 -1.324,-0.53 -0.531,-1.06 0.266,-0.53 2.121,-1.59 -0.532,-2.39 -0.527,-1.06 -6.633,-0.26 -1.324,5.57 -1.859,1.06 -0.797,-0.27 -3.446,-0.79 -4.507,1.59 -0.266,-1.06 -3.98,-1.6 0.265,1.07 -1.855,0.79 -0.532,-0.26 -0.527,-0.8 0.262,-0.8 -0.793,0.53 -15.914,-2.38 1.058,-10.88 -1.058,0.27 -0.531,-0.27 -0.528,-0.79 0.528,-1.32 1.062,-0.54 0.527,0.27 1.067,1.06 1.058,-2.65 1.59,-2.39 0.797,0.27 0.531,0.79 2.121,0.27 3.45,-1.06 7.422,0.53 2.386,5.56 h 2.387 l 0.266,1.07 1.062,-0.53 4.242,0.79 0.266,-2.92 -1.324,-0.52 -0.266,-0.8 0.266,-0.79 0.797,-0.27 0.527,0.27 0.266,-8.49 -0.532,-2.39 -2.121,-0.8 -0.797,2.13 -0.793,0.26 -0.797,-0.26 -2.914,-1.86 -0.535,2.92 -0.793,0.26 -6.629,-2.12 -9.019,-0.27 v -0.26 l 2.387,-16.97 -1.059,0.26 -0.531,-0.26 -0.266,-0.8 3.184,-6.36 0.531,-2.92 1.855,-0.8 4.243,-0.26 1.859,-3.71 z m -1.594,2.39 -2.918,1.85 -0.531,-0.79 2.656,-0.53 -0.269,-1.59 0.797,0.26 z m -5.039,1.85 -0.527,-0.79 0.793,0.26 z m -6.629,23.08 -0.531,-0.8 0.266,-1.32 1.594,0.53 z m 4.243,-23.08 -1.059,-1.32 1.324,0.53 z m -5.301,17.51 -0.27,-0.8 0.532,0.27 z m 30.23,48.8 -1.324,1.05 0.531,-1.32 1.059,-0.8 z m -33.683,-35.54 0.535,-2.92 2.121,2.12 z m 18.832,6.9 0.797,-0.27 0.531,0.79 z m -15.117,3.97 -2.387,-1.59 0.265,-1.33 0.793,0.27 1.594,-1.59 1.86,1.06 -2.387,1.59 z m 18.832,-0.26 -1.59,-1.33 1.851,0.8 z m -11.934,-0.53 -1.063,-1.33 1.325,0.53 z m -11.141,9.28 0.266,1.06 -1.328,-0.27 v 1.86 l -1.856,-1.33 -0.531,-2.65 2.387,-0.53 2.918,1.06 z m 19.098,16.7 -1.066,0.27 -1.325,-0.53 1.325,-1.06 1.328,0.53 z m 6.363,-28.9 c 0,0 1.059,-0.53 1.856,0 0.531,0.53 0.531,1.33 0.531,1.33 l -0.266,1.05 -1.062,-1.05 0.265,-0.8 z m -16.976,-33.42 -2.914,1.86 -0.532,-0.8 2.387,-0.53 v -1.59 l 0.531,0.27 z m 3.183,-4.51 -0.527,-1.06 0.793,0.27 z m -6.629,23.08 -0.531,-1.06 0.531,-1.06 1.329,0.26 z m 4.243,-23.08 -1.059,-1.32 1.324,0.53 z m -5.039,17.51 -0.532,-0.8 h 0.797 z m -3.446,13 0.266,-2.92 2.121,2.38 z m 3.446,11.13 -2.387,-1.86 0.531,-1.32 0.527,0.26 1.594,-1.32 2.121,0.79 -2.648,1.86 0.262,1.59"
         style="fill:#100e0d;fill-opacity:1;fill-rule:evenodd;stroke:none"
         id="path36" /><path
         d="m 999.215,1271.36 c 14.585,-1.59 20.155,-4.51 24.925,-7.96 -0.53,-2.39 3.72,-2.92 1.59,-4.77 -3.18,-1.59 1.59,-3.72 0.8,-5.84 1.86,-1.59 -0.53,-3.45 0.27,-4.77 0.52,-1.06 0.52,-2.66 -0.27,-3.45 1.06,-4.24 -2.92,-6.1 -3.71,-9.28 -2.39,-1.59 -2.66,-4.25 -5.04,-5.84 -1.33,-1.59 -5.04,-0.79 -3.71,-4.5 1.85,-1.86 4.24,-2.92 6.09,-4.51 1.07,0 2.39,-1.6 3.72,-2.39 0.26,-4.51 5.04,-1.33 6.1,-5.31 0,-1.32 -1.33,-1.85 -0.8,-3.18 1.06,-2.12 2.92,-0.52 4.78,-0.52 1.85,-0.8 0.79,-3.19 2.12,-4.52 1.59,-0.26 2.65,1.86 3.71,1.6 1.06,2.65 3.71,2.12 5.57,3.18 0.8,-1.06 2.12,-1.86 2.65,-3.18 -0.8,-0.8 -1.59,-0.8 -1.32,-2.39 2.65,-3.18 -2.39,-2.65 -3.72,-3.71 -1.85,-3.72 -6.89,-0.27 -9.01,-3.98 -0.8,-0.8 0,-2.12 0.79,-2.65 -0.53,-0.27 -0.79,-1.6 -1.06,-0.27 -0.26,-0.26 -0.53,-0.53 -0.53,-0.8 -2.65,-0.26 -3.45,-4.24 -5.84,-4.5 -0.79,2.65 -2.38,5.04 -2.11,8.22 1.59,2.38 3.97,2.91 6.09,4.51 -0.53,1.59 -2.12,1.59 -2.91,3.18 -2.39,1.32 -4.25,3.98 -6.64,5.31 -4.24,5.83 -11.66,7.68 -15.11,14.32 -3.71,0.52 -7.691,1.59 -10.609,-0.8 -2.918,-1.06 0.266,-1.86 1.059,-3.18 0.797,-3.45 2.656,-7.43 0.797,-11.14 2.123,-1.59 0,-5.04 1.59,-6.9 -0.528,-1.59 -1.856,-3.18 -2.914,-4.24 0.527,-1.06 1.324,0.26 2.121,0 1.856,-0.27 4.246,-0.27 5.566,-0.27 1.33,0.27 2.66,1.06 3.98,-0.26 -1.06,-1.06 -0.27,-3.45 -2.39,-3.71 -0.26,-1.6 1.33,-1.33 1.86,-2.39 -0.27,-4.51 -4.51,-0.8 -6.63,-2.92 -0.27,0.27 -0.53,0.27 -0.8,0 -1.055,0.27 -2.383,-0.53 -3.707,-0.53 -4.247,1.86 -7.161,-2.92 -11.668,-1.33 -2.387,1.86 -2.922,4.51 -2.653,6.9 1.324,2.65 4.508,1.59 6.363,2.92 0,3.18 -2.386,6.63 -0.531,9.81 0,1.59 0.797,4.77 -0.531,6.63 1.859,1.33 -0.527,1.33 -0.262,2.92 0,4.24 -1.062,7.69 -1.593,11.67 0,2.39 1.593,-0.27 2.917,0.53 0.797,-0.27 1.856,0 1.594,1.06 -1.859,0 -3.183,5.04 -4.773,1.06 -1.063,1.06 -1.063,2.38 -1.328,3.44 0,1.86 -0.532,3.19 -0.266,5.57 1.856,1.59 -1.062,2.66 0,4.78 -1.59,1.06 0,2.65 0,4.24 -0.266,2.39 -0.793,3.45 -0.266,5.83 -1.058,0.8 -1.855,3.45 -3.98,2.93 -0.793,-0.54 -3.445,-0.54 -1.059,-1.86 -0.531,-1.6 -2.121,-1.86 -2.918,-2.66 -0.796,0.8 -1.324,-1.05 -2.386,-0.26 -1.325,1.59 1.59,1.85 1.328,3.45 -0.531,0.53 -1.328,0.26 -1.856,0.26 -3.98,-1.32 -1.062,3.72 -2.125,4.78 -1.058,0.79 -2.386,0.53 -3.445,1.32 0,0.8 0.527,1.33 0.797,1.6 7.16,0.26 13.789,4.24 20.418,6.36 z m -4.242,-0.54 h -0.532 z m -4.512,-6.62 c -0.262,-0.54 -1.59,-1.06 -0.793,-1.59 0.262,-0.27 1.059,-1.07 1.855,-0.8 0.266,1.06 0,2.12 -1.062,2.39 z m 13.259,-1.59 c -1.06,-0.8 -5.833,0.26 -3.18,-2.66 -1.063,-1.32 -1.591,0.53 -2.653,0 -2.117,-2.38 -4.504,0 -6.629,-1.59 0.531,-3.98 1.59,-7.43 1.058,-11.4 1.329,-2.92 1.594,-6.1 2.387,-9.28 1.067,-0.8 2.387,-1.33 3.453,-1.07 1.321,-1.06 3.184,0.53 4.774,-0.79 0.53,0.79 1.32,-0.27 1.86,0.53 3.17,1.59 1.59,-3.45 3.44,-2.92 1.86,0 2.92,2.92 4.25,2.66 0.79,0.79 3.97,0.26 2.11,2.64 3.98,1.33 4.78,5.84 5.57,9.55 -1.59,1.33 -0.26,3.72 -1.05,5.31 -0.27,0.79 -1.06,2.39 -1.86,1.85 -0.53,2.13 -1.86,1.06 -3.18,2.39 -1.33,-0.53 -2.39,2.12 -3.98,1.59 0,0.53 -0.27,1.06 0.26,1.33 -1.32,1.59 -4.77,0 -6.63,1.86 z m -11.931,-27.06 c -1.062,0 -2.121,-1.06 -2.387,-2.12 1.059,-0.8 -0.265,-2.39 1.059,-2.91 1.328,1.32 2.387,2.38 3.449,4.24 -0.265,1.06 -1.324,0.79 -2.121,0.79 z m -0.531,-11.4 c 0.265,-0.53 0.531,-0.27 1.058,-0.27 0.532,0.27 0.27,0.8 0.27,1.07 -0.27,0.79 -1.859,0.26 -1.328,-0.8 z m -1.328,-10.08 h 0.531 v 0.53 h -0.531 z m 0.531,-23.34 c -0.793,-0.53 -1.059,-1.59 0,-2.12 0.531,0 0.531,0.53 1.062,0.8 0.266,0.79 -0.796,0.53 -1.062,1.32 z m 10.339,-1.32 c 0.27,-0.8 1.06,0.26 1.06,0.53 -0.26,0.79 -1.32,0.26 -1.06,-0.53 z m -0.26,40.84 -1.325,2.12 -0.797,-0.8 0.797,-0.53 -0.797,-0.79 v -0.8 h 2.122 z m 16.71,4.51 h 1.06 v 2.12 l -1.06,-1.06 z m 3.98,26.52 -1.59,2.12 -0.53,-0.79 0.53,-0.8 -0.53,-0.53 v -0.8 h 2.12 z m 12.99,-61.53 -0.79,-0.53 c 0,0 2.38,-0.27 3.44,0.53 1.06,0.8 -0.79,2.39 -0.79,2.39 z m -28.64,27.85 2.38,-1.06 0.27,1.06 h -1.06 l 0.26,1.06 -0.52,0.79 -1.59,-1.32 z m -22.279,33.41 -1.59,2.13 -0.531,-0.8 0.531,-0.8 -0.531,-0.53 v -0.79 h 2.121 z m 9.015,-56.49 h 1.067 v 2.13 l -1.067,-1.07 v -1.06"
         style="fill:#100e0d;fill-opacity:1;fill-rule:evenodd;stroke:none"
         id="path38" /></g></g></svg>
